# File created by Blade
# Date/Time:  Tue Jan 27 17:16:36 2015
#---------------------------------------------------------
:version 1.10
:name HOM
:units
  mass 1.0
  length 1.000000
  angle deg
:documentation
     Acclaim Skeleton File
:root
   axis xyz
   order TX TY TZ RX RY RZ
   position 0.000000 0.000000 0.000000
   orientation 0 0 0
:bonedata
   begin
      id 1
      name Spine_dum
      direction 0.000000 1.000000 0.000000
      length 7.539951
      axis 0.0 0.0 0.0 xyz
   end
   begin
      id 2
      name LeftUpLeg_dum
      direction 1.000000 0.000000 0.000000
      length 3.345476
      axis 0.0 0.0 0.0 xyz
   end
   begin
      id 3
      name RightUpLeg_dum
      direction -1.000000 0.000000 0.000000
      length 3.345476
      axis 0.0 0.0 0.0 xyz
   end
   begin
      id 4
      name Spine
      direction 0.000000 1.000000 0.000000
      length 0.000000
      axis 0.0 0.0 0.0 xyz
      dof rx ry rz
   end
   begin
      id 5
      name Spine_dum1
      direction 0.000000 1.000000 0.000000
      length 15.093809
      axis 0.0 0.0 0.0 xyz
   end
   begin
      id 6
      name Spine_dum2
      direction 0.000000 1.000000 0.000000
      length 9.738928
      axis 0.0 0.0 0.0 xyz
   end
   begin
      id 7
      name Spine_dum3
      direction 0.000000 1.000000 0.000000
      length 9.738928
      axis 0.0 0.0 0.0 xyz
   end
   begin
      id 8
      name Head
      direction 0.000000 1.000000 0.000000
      length 4.527550
      axis 0.0 0.0 0.0 xyz
      dof rx ry rz
   end
   begin
      id 9
      name LeftShoulder
      direction 1.000000 0.000000 0.000000
      length 7.084015
      axis 0.0 0.0 -90.0 xyz
      dof rx ry rz
   end
   begin
      id 10
      name LeftArm
      direction 1.000000 0.000000 0.000000
      length 10.259319
      axis 0.0 0.0 -90.0 xyz
      dof rx ry rz
   end
   begin
      id 11
      name LeftForeArm
      direction 1.000000 0.000000 0.000000
      length 9.896984
      axis 0.0 0.0 -90.0 xyz
      dof ry rz rx
   end
   begin
      id 12
      name LeftHand
      direction 0.000000 0.000000 0.000000
      length 0.000000
      axis 0.0 0.0 -90.0 xyz
      dof rx ry rz
   end
   begin
      id 13
      name LeftHand_dum1
      direction 0.000000 0.000000 0.000000
      length 0.000000
      axis 0.0 0.0 -90.0 xyz
   end
   begin
      id 14
      name LeftHand_dum2
      direction 1.000000 0.000000 0.000000
      length 3.937000
      axis 0.0 0.0 -90.0 xyz
   end
   begin
      id 15
      name LeftHandThumb1
      direction 0.000000 0.000000 1.000000
      length 3.937000
      axis 0.0 0.0 -90.0 xyz
      dof rx rz ry
   end
   begin
      id 16
      name RightShoulder
      direction -1.000000 0.000000 0.000000
      length 7.084015
      axis 0.0 0.0 90.0 xyz
      dof rx ry rz
   end
   begin
      id 17
      name RightArm
      direction -1.000000 0.000000 0.000000
      length 10.259319
      axis 0.0 0.0 90.0 xyz
      dof rx ry rz
   end
   begin
      id 18
      name RightForeArm
      direction -1.000000 0.000000 0.000000
      length 9.896984
      axis 0.0 0.0 90.0 xyz
      dof ry rz rx
   end
   begin
      id 19
      name RightHand
      direction 0.000000 0.000000 0.000000
      length 0.000000
      axis 0.0 0.0 90.0 xyz
      dof rx ry rz
   end
   begin
      id 20
      name RightHand_dum1
      direction 0.000000 0.000000 0.000000
      length 0.000000
      axis 0.0 0.0 90.0 xyz
   end
   begin
      id 21
      name RightHand_dum2
      direction -1.000000 0.000000 0.000000
      length 3.937000
      axis 0.0 0.0 90.0 xyz
   end
   begin
      id 22
      name RightHandThumb1
      direction 0.000000 0.000000 1.000000
      length 3.937000
      axis 0.0 0.0 90.0 xyz
      dof rx rz ry
   end
   begin
      id 23
      name LeftUpLeg
      direction 0.000000 -1.000000 0.000000
      length 19.114733
      axis 0.0 0.0 0.0 xyz
      dof rx ry rz
   end
   begin
      id 24
      name LeftLeg
      direction 0.000000 -1.000000 0.000000
      length 16.045604
      axis 0.0 0.0 0.0 xyz
      dof rx ry rz
   end
   begin
      id 25
      name LeftFoot
      direction 0.000000 -0.258819 0.965926
      length 5.543155
      axis 15.0 0.0 0.0 xyz
      dof rx ry rz
   end
   begin
      id 26
      name LeftToeBase
      direction 0.000000 0.000000 1.000000
      length 2.952750
      axis 0.0 0.0 0.0 xyz
      dof rx ry rz
   end
   begin
      id 27
      name RightUpLeg
      direction 0.000000 -1.000000 0.000000
      length 19.114733
      axis 0.0 0.0 0.0 xyz
      dof rx ry rz
   end
   begin
      id 28
      name RightLeg
      direction 0.000000 -1.000000 0.000000
      length 16.045604
      axis 0.0 0.0 0.0 xyz
      dof rx ry rz
   end
   begin
      id 29
      name RightFoot
      direction 0.000000 -0.258819 0.965926
      length 5.543155
      axis 15.0 0.0 0.0 xyz
      dof rx ry rz
   end
   begin
      id 30
      name RightToeBase
      direction 0.000000 0.000000 1.000000
      length 2.952750
      axis 0.0 0.0 0.0 xyz
      dof rx ry rz
   end
:hierarchy
   begin
      root Spine_dum LeftUpLeg_dum RightUpLeg_dum
      Spine_dum Spine
      LeftUpLeg_dum LeftUpLeg
      RightUpLeg_dum RightUpLeg
      Spine Spine_dum1 Spine_dum2 Spine_dum3
      Spine_dum1 Head
      Spine_dum2 LeftShoulder
      Spine_dum3 RightShoulder
      LeftShoulder LeftArm
      LeftArm LeftForeArm
      LeftForeArm LeftHand
      LeftHand LeftHand_dum1 LeftHand_dum2
      LeftHand_dum1 LeftHandThumb1
      RightShoulder RightArm
      RightArm RightForeArm
      RightForeArm RightHand
      RightHand RightHand_dum1 RightHand_dum2
      RightHand_dum1 RightHandThumb1
      LeftUpLeg LeftLeg
      LeftLeg LeftFoot
      LeftFoot LeftToeBase
      RightUpLeg RightLeg
      RightLeg RightFoot
      RightFoot RightToeBase
   end

# File created by Blade
# Date/Time:  Tue Jan 27 17:16:27 2015
# Frame Rate: 120.000 fps
#------------------------------------------------------
:FULLY-SPECIFIED
:DEGREES
244
root -2.011040 37.086964 0.219418 -2.417281 -41.053118 7.008925
Spine 5.052075 23.381763 -7.880229
Head -5.942378 -8.621093 3.666286
LeftShoulder -5.200163 -9.596628 14.825478
LeftArm -20.586416 -17.294203 -28.381352
LeftForeArm -1.752902 -0.000000 60.368944
LeftHand -19.226209 -0.000000 57.091384
LeftHandThumb1 -26.253704 0.000000 33.147579
RightShoulder 3.620071 -14.182562 0.014812
RightArm 38.952037 -29.667294 45.834872
RightForeArm -167.191398 0.000000 31.370350
RightHand 3.564293 -0.000000 8.440208
RightHandThumb1 -24.326973 -0.000000 -32.862282
LeftUpLeg -69.024682 -1.448001 5.033150
LeftLeg 113.107063 -0.000000 -0.000000
LeftFoot -3.674367 -12.080084 -20.528384
LeftToeBase 13.236810 -0.000000 -0.000000
RightUpLeg -12.450642 3.574457 -1.375947
RightLeg 22.178933 -0.000000 -0.000000
RightFoot -13.369209 14.230440 -3.087893
RightToeBase 4.321904 -0.000000 -0.000000
245
root -2.010260 37.091024 0.229008 -2.555054 -41.743511 7.014611
Spine 5.140099 23.489870 -7.959457
Head -5.981601 -8.343848 3.754373
LeftShoulder -5.185730 -9.537023 14.888996
LeftArm -21.225638 -17.470131 -27.987754
LeftForeArm -1.896066 -0.000000 60.073715
LeftHand -19.171166 -0.000000 56.936470
LeftHandThumb1 -26.253704 0.000000 33.147579
RightShoulder 3.652674 -14.100915 0.008371
RightArm 38.654316 -29.484523 45.931141
RightForeArm -167.277300 0.000000 31.065645
RightHand 3.581615 0.000000 8.475241
RightHandThumb1 -24.326973 -0.000000 -32.862282
LeftUpLeg -69.285842 -1.367154 4.998036
LeftLeg 113.618953 -0.000000 -0.000000
LeftFoot -3.663393 -12.118414 -20.600043
LeftToeBase 13.014516 -0.000000 -0.000000
RightUpLeg -12.372093 3.655676 -1.333427
RightLeg 22.128140 -0.000000 -0.000000
RightFoot -13.290160 14.668733 -3.251166
RightToeBase 4.373707 -0.000000 -0.000000
246
root -2.010209 37.095366 0.238507 -2.705831 -42.433773 7.013005
Spine 5.265039 23.591897 -8.009419
Head -6.051401 -8.147363 3.783480
LeftShoulder -5.208348 -9.440855 14.921490
LeftArm -21.807298 -17.634961 -27.589698
LeftForeArm -2.215605 -0.000000 59.790212
LeftHand -19.035628 -0.000000 56.948422
LeftHandThumb1 -26.253704 0.000000 33.147579
RightShoulder 3.664015 -14.062672 0.000982
RightArm 38.461508 -29.296930 45.934328
RightForeArm -167.479929 -0.000000 30.713774
RightHand 3.524806 -0.000000 8.290574
RightHandThumb1 -24.326973 -0.000000 -32.862282
LeftUpLeg -69.550517 -1.259530 4.977295
LeftLeg 114.162339 -0.000000 -0.000000
LeftFoot -3.757251 -12.109425 -20.493412
LeftToeBase 12.931669 -0.000000 -0.000000
RightUpLeg -12.265613 3.824904 -1.283325
RightLeg 22.061184 -0.000000 -0.000000
RightFoot -13.119161 15.072586 -3.253814
RightToeBase 4.215380 -0.000000 -0.000000
247
root -2.005634 37.099841 0.251862 -2.880949 -43.073630 7.056174
Spine 5.388330 23.665995 -8.093375
Head -6.081160 -7.971916 3.831386
LeftShoulder -5.239265 -9.304045 14.969095
LeftArm -22.356458 -17.843785 -27.249265
LeftForeArm -2.526835 -0.000000 59.550740
LeftHand -18.795008 -0.000000 56.766890
LeftHandThumb1 -26.253704 0.000000 33.147579
RightShoulder 3.653508 -14.087921 0.002005
RightArm 38.294993 -29.075463 45.923614
RightForeArm -167.603184 -0.000000 30.400720
RightHand 3.548390 -0.000000 8.229779
RightHandThumb1 -24.326973 -0.000000 -32.862282
LeftUpLeg -69.831979 -1.219348 4.940371
LeftLeg 114.714558 -0.000000 -0.000000
LeftFoot -3.788531 -12.067267 -20.347647
LeftToeBase 12.673398 -0.000000 -0.000000
RightUpLeg -12.171693 3.960688 -1.276237
RightLeg 22.020087 -0.000000 -0.000000
RightFoot -13.071614 15.416373 -3.395541
RightToeBase 4.314090 -0.000000 -0.000000
